<?xml version="1.0" encoding="UTF-8" standalone="no"?>
<!-- Created with Inkscape (http://www.inkscape.org/) -->

<svg
   xmlns:dc="http://purl.org/dc/elements/1.1/"
   xmlns:cc="http://creativecommons.org/ns#"
   xmlns:rdf="http://www.w3.org/1999/02/22-rdf-syntax-ns#"
   xmlns:svg="http://www.w3.org/2000/svg"
   xmlns="http://www.w3.org/2000/svg"
   xmlns:sodipodi="http://sodipodi.sourceforge.net/DTD/sodipodi-0.dtd"
   xmlns:inkscape="http://www.inkscape.org/namespaces/inkscape"
   width="210mm"
   height="297mm"
   viewBox="0 0 744.09448819 1052.3622047"
   id="svg2"
   version="1.1"
   inkscape:version="0.91 r13725"
   sodipodi:docname="Source Drawing.svg">
  <defs
     id="defs4" />
  <sodipodi:namedview
     id="base"
     pagecolor="#000000"
     bordercolor="#666666"
     borderopacity="1.0"
     inkscape:pageopacity="0"
     inkscape:pageshadow="2"
     inkscape:zoom="1.4142136"
     inkscape:cx="422.72051"
     inkscape:cy="562.44759"
     inkscape:document-units="px"
     inkscape:current-layer="layer1"
     showgrid="false"
     showguides="true"
     inkscape:guide-bbox="true"
     inkscape:window-width="1920"
     inkscape:window-height="1137"
     inkscape:window-x="1192"
     inkscape:window-y="472"
     inkscape:window-maximized="1">
    <sodipodi:guide
       position="390.75,424.00001"
       orientation="1,0"
       id="guide5140" />
    <sodipodi:guide
       position="390.75,424.00001"
       orientation="0,1"
       id="guide5142" />
  </sodipodi:namedview>
  <metadata
     id="metadata7">
    <rdf:RDF>
      <cc:Work
         rdf:about="">
        <dc:format>image/svg+xml</dc:format>
        <dc:type
           rdf:resource="http://purl.org/dc/dcmitype/StillImage" />
        <dc:title></dc:title>
      </cc:Work>
    </rdf:RDF>
  </metadata>
  <g
     inkscape:label="Layer 1"
     inkscape:groupmode="layer"
     id="layer1">
    <path
       style="fill:#cccccc;fill-opacity:1;stroke:#00ffff;stroke-width:0.01;stroke-miterlimit:4;stroke-dasharray:none;stroke-opacity:1"
       d="M 389.27344 355.46484 C 354.61737 355.46485 326.40298 383.43163 325.96875 417.98633 L 82.871094 417.98633 L 90.953125 426.06836 L 326.38086 426.06836 C 326.86193 430.25444 327.74877 434.31604 329.00781 438.21484 L 103.09961 438.21484 L 111.17969 446.29492 L 332.23633 446.29492 C 334.34248 450.64666 336.94215 454.71417 339.94531 458.44336 L 123.32812 458.44336 L 131.4082 466.52344 L 347.72461 466.52344 C 358.85322 476.22296 373.38129 482.11719 389.27344 482.11719 C 405.16559 482.11719 419.69516 476.22296 430.82422 466.52344 L 647.14062 466.52344 L 655.2207 458.44336 L 438.60156 458.44336 C 441.60487 454.71417 444.20623 450.64666 446.3125 446.29492 L 667.36914 446.29492 L 675.44922 438.21484 L 449.54102 438.21484 C 450.80013 434.31604 451.68687 430.25444 452.16797 426.06836 L 687.5957 426.06836 L 695.67773 417.98633 L 452.58008 417.98633 C 452.14582 383.43163 423.9295 355.46484 389.27344 355.46484 z M 389.27344 363.54492 C 392.23963 363.54492 395.14799 363.78251 397.98633 364.23047 L 358.12305 407.94727 L 352.09766 377.89258 C 361.90477 368.97507 374.94283 363.54492 389.27344 363.54492 z M 398.03711 364.24023 C 414.84357 366.90889 429.09174 377.13179 437.22656 391.33008 L 378.50781 387.43945 L 398.03711 364.24023 z M 352.07031 377.91992 L 361.44531 436.67188 L 334.17773 422.63672 C 334.0906 421.36487 334.0293 420.08536 334.0293 418.79102 C 334.0293 402.57633 340.98095 388.01751 352.07031 377.91992 z M 407.25195 390.5918 L 437.25977 391.38867 C 441.87217 399.46191 444.51953 408.80888 444.51953 418.79102 C 444.51953 425.87055 443.17959 432.62652 440.76367 438.8418 L 407.25195 390.5918 z M 422.70898 415.0293 L 440.73828 438.9082 C 434.68269 454.4274 421.83427 466.51871 405.81641 471.52344 L 422.70898 415.0293 z M 334.17969 422.67188 L 385.97461 451.98242 L 358.16797 464.47656 C 344.58943 455.22371 335.38255 440.06763 334.17969 422.67188 z M 413.24023 442.34961 L 405.75586 471.54492 C 400.55209 473.16412 395.017 474.03711 389.27344 474.03711 C 377.74323 474.03711 367.05236 470.52024 358.20508 464.50195 L 413.24023 442.34961 z "
       id="rect4140"
       inkscape:export-filename="C:\Users\shholmes\Dropbox\Apps\Rainmeter\Skins\Slideshow - Stripes\pictures\Shutter.png"
       inkscape:export-xdpi="102.8"
       inkscape:export-ydpi="102.8" />
    <path
       style="fill:#cccccc;fill-opacity:1;stroke:#00ffff;stroke-width:0.01;stroke-miterlimit:4;stroke-dasharray:none;stroke-opacity:1"
       d="M 396.60156 567.45312 A 5.7092767 5.7092767 0 0 1 396.61914 567.7832 A 5.7092767 5.7092767 0 0 1 390.9082 573.49219 A 5.7092767 5.7092767 0 0 1 385.19922 567.7832 A 5.7092767 5.7092767 0 0 1 385.20898 567.51367 A 57.092793 57.092793 0 0 0 381.71289 567.9375 A 5.7092767 5.7092767 0 0 1 381.80469 568.22852 A 5.7092767 5.7092767 0 0 1 377.76758 575.2207 A 5.7092767 5.7092767 0 0 1 370.77539 571.18359 A 5.7092767 5.7092767 0 0 1 370.70703 570.88477 A 57.092793 57.092793 0 0 0 367.47266 572.27734 A 5.7092767 5.7092767 0 0 1 367.61523 572.49414 A 5.7092767 5.7092767 0 0 1 365.52344 580.29297 A 5.7092767 5.7092767 0 0 1 357.72656 578.20508 A 5.7092767 5.7092767 0 0 1 357.60352 577.97461 A 57.092793 57.092793 0 0 0 354.79102 580.08984 A 5.7092767 5.7092767 0 0 1 355.00977 580.28906 A 5.7092767 5.7092767 0 0 1 355.00977 588.36328 A 5.7092767 5.7092767 0 0 1 346.93555 588.36328 A 5.7092767 5.7092767 0 0 1 346.73438 588.14648 A 57.092793 57.092793 0 0 0 344.60352 590.94922 A 5.7092767 5.7092767 0 0 1 344.85156 591.07617 A 5.7092767 5.7092767 0 0 1 346.94141 598.87695 A 5.7092767 5.7092767 0 0 1 339.14258 600.96484 A 5.7092767 5.7092767 0 0 1 338.90625 600.81641 A 57.092793 57.092793 0 0 0 337.57617 604.07227 A 5.7092767 5.7092767 0 0 1 337.83398 604.12891 A 5.7092767 5.7092767 0 0 1 341.87109 611.12109 A 5.7092767 5.7092767 0 0 1 334.87891 615.1582 A 5.7092767 5.7092767 0 0 1 334.625 615.08008 A 57.092793 57.092793 0 0 0 334.10156 618.56836 A 5.7092767 5.7092767 0 0 1 334.43164 618.55078 A 5.7092767 5.7092767 0 0 1 340.14062 624.25977 A 5.7092767 5.7092767 0 0 1 334.43164 629.96875 A 5.7092767 5.7092767 0 0 1 334.16016 629.95898 A 57.092793 57.092793 0 0 0 334.58594 633.45703 A 5.7092767 5.7092767 0 0 1 334.87891 633.36133 A 5.7092767 5.7092767 0 0 1 336.57422 633.17383 A 5.7092767 5.7092767 0 0 1 341.87109 637.39844 A 5.7092767 5.7092767 0 0 1 337.83398 644.39258 A 5.7092767 5.7092767 0 0 1 337.5332 644.46094 A 57.092793 57.092793 0 0 0 338.92383 647.69531 A 5.7092767 5.7092767 0 0 1 339.14258 647.55469 A 5.7092767 5.7092767 0 0 1 341.86328 646.79102 A 5.7092767 5.7092767 0 0 1 346.94141 649.64453 A 5.7092767 5.7092767 0 0 1 344.85156 657.44336 A 5.7092767 5.7092767 0 0 1 344.62305 657.56445 A 57.092793 57.092793 0 0 0 346.73633 660.37695 A 5.7092767 5.7092767 0 0 1 346.93555 660.1582 A 5.7092767 5.7092767 0 0 1 351.05664 658.48633 A 5.7092767 5.7092767 0 0 1 355.00977 660.1582 A 5.7092767 5.7092767 0 0 1 355.00977 668.23242 A 5.7092767 5.7092767 0 0 1 354.79297 668.43164 A 57.092793 57.092793 0 0 0 357.59766 670.56641 A 5.7092767 5.7092767 0 0 1 357.72656 670.31641 A 5.7092767 5.7092767 0 0 1 362.39844 667.46875 A 5.7092767 5.7092767 0 0 1 365.52344 668.22656 A 5.7092767 5.7092767 0 0 1 367.61523 676.02539 A 5.7092767 5.7092767 0 0 1 367.4668 676.26172 A 57.092793 57.092793 0 0 0 370.7207 677.5918 A 5.7092767 5.7092767 0 0 1 370.77539 677.33594 A 5.7092767 5.7092767 0 0 1 376.24023 673.10352 A 5.7092767 5.7092767 0 0 1 377.76758 673.29883 A 5.7092767 5.7092767 0 0 1 381.80469 680.29102 A 5.7092767 5.7092767 0 0 1 381.72852 680.54102 A 57.092793 57.092793 0 0 0 385.21484 681.06836 A 5.7092767 5.7092767 0 0 1 385.19922 680.73633 A 5.7092767 5.7092767 0 0 1 390.9082 675.02734 A 5.7092767 5.7092767 0 0 1 396.61719 680.73633 A 5.7092767 5.7092767 0 0 1 396.60938 681.00781 A 57.092793 57.092793 0 0 0 400.10547 680.58398 A 5.7092767 5.7092767 0 0 1 400.01172 680.29102 A 5.7092767 5.7092767 0 0 1 404.04883 673.29883 A 5.7092767 5.7092767 0 0 1 405.74414 673.10742 A 5.7092767 5.7092767 0 0 1 411.04102 677.33594 A 5.7092767 5.7092767 0 0 1 411.10938 677.63477 A 57.092793 57.092793 0 0 0 414.34375 676.24414 A 5.7092767 5.7092767 0 0 1 414.20312 676.02539 A 5.7092767 5.7092767 0 0 1 416.29102 668.22656 A 5.7092767 5.7092767 0 0 1 419.01172 667.46484 A 5.7092767 5.7092767 0 0 1 424.0918 670.31641 A 5.7092767 5.7092767 0 0 1 424.21289 670.54492 A 57.092793 57.092793 0 0 0 427.02539 668.43164 A 5.7092767 5.7092767 0 0 1 426.80664 668.23242 A 5.7092767 5.7092767 0 0 1 426.80664 660.1582 A 5.7092767 5.7092767 0 0 1 430.92773 658.48633 A 5.7092767 5.7092767 0 0 1 434.88086 660.1582 A 5.7092767 5.7092767 0 0 1 435.08203 660.37305 A 57.092793 57.092793 0 0 0 437.21289 657.57227 A 5.7092767 5.7092767 0 0 1 436.96484 657.44336 A 5.7092767 5.7092767 0 0 1 434.875 649.64453 A 5.7092767 5.7092767 0 0 1 439.54883 646.79688 A 5.7092767 5.7092767 0 0 1 442.67383 647.55469 A 5.7092767 5.7092767 0 0 1 442.91016 647.70312 A 57.092793 57.092793 0 0 0 444.24219 644.44727 A 5.7092767 5.7092767 0 0 1 443.98438 644.39258 A 5.7092767 5.7092767 0 0 1 439.94727 637.39844 A 5.7092767 5.7092767 0 0 1 445.41016 633.16992 A 5.7092767 5.7092767 0 0 1 446.93945 633.36133 A 5.7092767 5.7092767 0 0 1 447.18945 633.43945 A 57.092793 57.092793 0 0 0 447.7168 629.95312 A 5.7092767 5.7092767 0 0 1 447.38672 629.96875 A 5.7092767 5.7092767 0 0 1 441.67578 624.25977 A 5.7092767 5.7092767 0 0 1 447.38672 618.55078 A 5.7092767 5.7092767 0 0 1 447.65625 618.56055 A 57.092793 57.092793 0 0 0 447.23242 615.0625 A 5.7092767 5.7092767 0 0 1 446.93945 615.1582 A 5.7092767 5.7092767 0 0 1 439.94727 611.12109 A 5.7092767 5.7092767 0 0 1 443.98438 604.12891 A 5.7092767 5.7092767 0 0 1 444.2832 604.0625 A 57.092793 57.092793 0 0 0 442.89258 600.82422 A 5.7092767 5.7092767 0 0 1 442.67383 600.96484 A 5.7092767 5.7092767 0 0 1 434.875 598.87695 A 5.7092767 5.7092767 0 0 1 436.96484 591.07617 A 5.7092767 5.7092767 0 0 1 437.19531 590.95703 A 57.092793 57.092793 0 0 0 435.08008 588.14258 A 5.7092767 5.7092767 0 0 1 434.88086 588.36328 A 5.7092767 5.7092767 0 0 1 426.80664 588.36328 A 5.7092767 5.7092767 0 0 1 426.80664 580.28906 A 5.7092767 5.7092767 0 0 1 427.02539 580.08984 A 57.092793 57.092793 0 0 0 424.21875 577.95703 A 5.7092767 5.7092767 0 0 1 424.0918 578.20508 A 5.7092767 5.7092767 0 0 1 416.29102 580.29297 A 5.7092767 5.7092767 0 0 1 414.20312 572.49414 A 5.7092767 5.7092767 0 0 1 414.35547 572.25977 A 57.092793 57.092793 0 0 0 411.09766 570.92773 A 5.7092767 5.7092767 0 0 1 411.04102 571.18359 A 5.7092767 5.7092767 0 0 1 404.04883 575.2207 A 5.7092767 5.7092767 0 0 1 400.01172 568.22852 A 5.7092767 5.7092767 0 0 1 400.0918 567.97852 A 57.092793 57.092793 0 0 0 396.60156 567.45312 z M 391.44141 579.3125 A 45.135837 45.135837 0 0 1 392.63672 579.35156 A 6.0285472 6.0285472 0 0 0 396.42969 585.11914 A 6.0285472 6.0285472 0 0 0 404.25586 581.74219 A 6.0285472 6.0285472 0 0 0 404.39258 581.33984 A 45.135837 45.135837 0 0 1 407.56641 582.45508 A 45.135837 45.135837 0 0 1 409.70117 583.42969 A 6.0285472 6.0285472 0 0 0 411.00391 590.19727 A 6.0285472 6.0285472 0 0 0 419.5293 590.07227 A 6.0285472 6.0285472 0 0 0 419.79883 589.76562 A 45.135837 45.135837 0 0 1 423.92188 593.70508 A 6.0285472 6.0285472 0 0 0 422.52734 600.46484 A 6.0285472 6.0285472 0 0 0 430.44922 603.61133 A 6.0285472 6.0285472 0 0 0 430.84766 603.41602 A 45.135837 45.135837 0 0 1 433.14648 608.63867 A 6.0285472 6.0285472 0 0 0 429.24219 614.36328 A 6.0285472 6.0285472 0 0 0 435.35938 620.30078 A 6.0285472 6.0285472 0 0 0 435.85156 620.26953 A 45.135837 45.135837 0 0 1 435.97266 625.97852 A 6.0285472 6.0285472 0 0 0 430.12695 629.77148 A 6.0285472 6.0285472 0 0 0 433.50586 637.59766 A 6.0285472 6.0285472 0 0 0 434.00781 637.76953 A 45.135837 45.135837 0 0 1 432.85742 641.0625 A 45.135837 45.135837 0 0 1 431.93164 643.08984 A 6.0285472 6.0285472 0 0 0 431.72266 642.99219 A 6.0285472 6.0285472 0 0 0 425.04883 644.3457 A 6.0285472 6.0285472 0 0 0 425.17578 652.86914 A 6.0285472 6.0285472 0 0 0 425.5957 653.23828 A 45.135837 45.135837 0 0 1 421.65039 657.37695 A 6.0285472 6.0285472 0 0 0 419.47656 655.83203 A 6.0285472 6.0285472 0 0 0 414.78125 655.86719 A 6.0285472 6.0285472 0 0 0 411.63477 663.79102 A 6.0285472 6.0285472 0 0 0 411.9043 664.33984 A 45.135837 45.135837 0 0 1 406.66797 666.64453 A 6.0285472 6.0285472 0 0 0 403.24023 663.02344 A 6.0285472 6.0285472 0 0 0 400.88477 662.58398 A 6.0285472 6.0285472 0 0 0 394.94531 668.69727 A 6.0285472 6.0285472 0 0 0 394.99414 669.35156 A 45.135837 45.135837 0 0 1 389.26367 669.4668 A 6.0285472 6.0285472 0 0 0 385.47656 663.46875 A 6.0285472 6.0285472 0 0 0 377.64844 666.8457 A 6.0285472 6.0285472 0 0 0 377.43945 667.47461 A 45.135837 45.135837 0 0 1 374.25 666.35352 A 45.135837 45.135837 0 0 1 372.10742 665.37695 A 6.0285472 6.0285472 0 0 0 370.90234 658.39062 A 6.0285472 6.0285472 0 0 0 369.04883 657.16211 A 6.0285472 6.0285472 0 0 0 362.37695 658.51562 A 6.0285472 6.0285472 0 0 0 361.96289 658.99219 A 45.135837 45.135837 0 0 1 357.82812 655.03125 A 6.0285472 6.0285472 0 0 0 359.38086 648.12305 A 6.0285472 6.0285472 0 0 0 356.15234 644.94141 A 6.0285472 6.0285472 0 0 0 351.45703 644.97461 A 6.0285472 6.0285472 0 0 0 350.90234 645.25 A 45.135837 45.135837 0 0 1 348.60938 640.00391 A 6.0285472 6.0285472 0 0 0 352.66406 634.22656 A 6.0285472 6.0285472 0 0 0 348.90234 628.72852 A 6.0285472 6.0285472 0 0 0 346.54883 628.28516 A 6.0285472 6.0285472 0 0 0 345.95508 628.32422 A 45.135837 45.135837 0 0 1 345.85938 622.60547 A 6.0285472 6.0285472 0 0 0 351.77734 618.81836 A 6.0285472 6.0285472 0 0 0 348.40039 610.98828 A 6.0285472 6.0285472 0 0 0 347.87109 610.80859 A 45.135837 45.135837 0 0 1 348.95898 607.74609 A 45.135837 45.135837 0 0 1 349.98438 605.49805 A 6.0285472 6.0285472 0 0 0 356.85742 604.24219 A 6.0285472 6.0285472 0 0 0 356.73047 595.71875 A 6.0285472 6.0285472 0 0 0 356.37109 595.40234 A 45.135837 45.135837 0 0 1 360.32422 591.28516 A 6.0285472 6.0285472 0 0 0 367.12305 592.7207 A 6.0285472 6.0285472 0 0 0 370.26953 584.79688 A 6.0285472 6.0285472 0 0 0 370.07227 584.39453 A 45.135837 45.135837 0 0 1 375.30273 582.11133 A 6.0285472 6.0285472 0 0 0 381.02148 586.00586 A 6.0285472 6.0285472 0 0 0 386.95898 579.88867 A 6.0285472 6.0285472 0 0 0 386.93164 579.45508 A 45.135837 45.135837 0 0 1 391.44141 579.3125 z M 390.91211 591.83594 A 32.593313 32.593313 0 0 0 386.61133 592.11914 A 8.1483254 8.1483254 0 0 1 381.55859 601.03125 A 8.1483254 8.1483254 0 0 1 371.82812 597.99414 A 32.593313 32.593313 0 0 0 368.51758 600.76562 A 8.1483254 8.1483254 0 0 1 369.70312 610.98242 A 8.1483254 8.1483254 0 0 1 359.98242 614.21875 A 32.593313 32.593313 0 0 0 359.36133 616.19141 A 32.593313 32.593313 0 0 0 358.86914 618.4082 A 8.1483254 8.1483254 0 0 1 359.77148 618.57227 A 8.1483254 8.1483254 0 0 1 365.96289 626.00195 A 8.1483254 8.1483254 0 0 1 359.87891 634.37109 A 32.593313 32.593313 0 0 0 361.50781 638.4082 A 8.1483254 8.1483254 0 0 1 367.18555 637.55664 A 8.1483254 8.1483254 0 0 1 371.76562 640.34961 A 8.1483254 8.1483254 0 0 1 371.73438 650.72852 A 32.593313 32.593313 0 0 0 375.42969 653.04492 A 8.1483254 8.1483254 0 0 1 384.89453 648.54688 A 8.1483254 8.1483254 0 0 1 390.96875 656.97656 A 32.593313 32.593313 0 0 0 395.32227 656.67188 A 8.1483254 8.1483254 0 0 1 400.33203 647.46289 A 8.1483254 8.1483254 0 0 1 405.13477 647.10742 A 8.1483254 8.1483254 0 0 1 410.17188 650.66211 A 32.593313 32.593313 0 0 0 413.48633 647.85156 A 8.1483254 8.1483254 0 0 1 412.18359 637.51172 A 8.1483254 8.1483254 0 0 1 421.44531 634.10938 A 8.1483254 8.1483254 0 0 1 421.92383 634.27539 A 32.593313 32.593313 0 0 0 422.44727 632.61523 A 32.593313 32.593313 0 0 0 422.98633 630.07812 A 8.1483254 8.1483254 0 0 1 415.92383 622.49219 A 8.1483254 8.1483254 0 0 1 421.84375 614.17383 A 32.593313 32.593313 0 0 0 420.18945 610.18164 A 8.1483254 8.1483254 0 0 1 410.12305 608.14453 A 8.1483254 8.1483254 0 0 1 409.96484 598.00977 A 32.593313 32.593313 0 0 0 406.3125 595.72656 A 8.1483254 8.1483254 0 0 1 396.99609 599.94727 A 8.1483254 8.1483254 0 0 1 390.91211 591.83594 z M 390.9082 604.2832 A 19.976864 19.976864 0 0 1 392.26758 604.35156 L 392.26758 605.82812 A 18.500004 18.500004 0 0 1 399.14453 607.71875 L 399.88477 606.4375 A 19.976864 19.976864 0 0 1 402.07422 607.70508 L 401.33789 608.98242 A 18.500004 18.500004 0 0 1 406.33203 614.06641 L 407.61719 613.32422 A 19.976864 19.976864 0 0 1 408.85938 615.53125 L 407.57617 616.27148 A 18.500004 18.500004 0 0 1 409.36914 623.15234 L 410.8457 623.15234 A 19.976864 19.976864 0 0 1 410.88477 624.25977 A 19.976864 19.976864 0 0 1 410.81445 625.68359 L 409.33789 625.68359 A 18.500004 18.500004 0 0 1 407.44141 632.51172 L 408.72266 633.25 A 19.976864 19.976864 0 0 1 407.45508 635.44336 L 406.17773 634.70703 A 18.500004 18.500004 0 0 1 401.12891 639.66797 L 401.86914 640.94922 A 19.976864 19.976864 0 0 1 399.66602 642.19922 L 398.92578 640.91602 A 18.500004 18.500004 0 0 1 392.0918 642.71875 L 392.0918 644.19531 A 19.976864 19.976864 0 0 1 390.9082 644.23828 A 19.976864 19.976864 0 0 1 389.55859 644.16992 L 389.55859 642.69336 A 18.500004 18.500004 0 0 1 382.74219 640.83594 L 382.00391 642.11719 A 19.976864 19.976864 0 0 1 379.80664 640.85742 L 380.54492 639.58008 A 18.500004 18.500004 0 0 1 375.55664 634.55664 L 374.27148 635.29688 A 19.976864 19.976864 0 0 1 373.00781 633.10352 L 374.29102 632.36328 A 18.500004 18.500004 0 0 1 372.45312 625.50586 L 370.97461 625.50586 A 19.976864 19.976864 0 0 1 370.93164 624.25977 A 19.976864 19.976864 0 0 1 370.99609 622.97461 L 372.47266 622.97461 A 18.500004 18.500004 0 0 1 374.32422 616.11328 L 373.04297 615.37305 A 19.976864 19.976864 0 0 1 374.30078 613.17383 L 375.57812 613.91211 A 18.500004 18.500004 0 0 1 380.63867 608.88867 L 379.89844 607.60547 A 19.976864 19.976864 0 0 1 382.09375 606.3457 L 382.83594 607.63086 A 18.500004 18.500004 0 0 1 389.73633 605.80078 L 389.73633 604.32617 A 19.976864 19.976864 0 0 1 390.9082 604.2832 z M 84.505859 620.86523 L 92.587891 628.94727 L 326.57812 628.94727 A 64.508621 64.508621 0 0 1 326.40039 624.25977 A 64.508621 64.508621 0 0 1 326.57031 620.86523 L 84.505859 620.86523 z M 455.29688 620.86523 A 64.508621 64.508621 0 0 1 455.41797 624.25977 A 64.508621 64.508621 0 0 1 455.18359 628.94727 L 689.23047 628.94727 L 697.3125 620.86523 L 455.29688 620.86523 z M 104.73438 641.09375 L 112.81445 649.17383 L 331.4707 649.17383 A 64.508621 64.508621 0 0 1 328.6543 641.09375 L 104.73438 641.09375 z M 453.10547 641.09375 A 64.508621 64.508621 0 0 1 450.40039 649.17383 L 669.00391 649.17383 L 677.08398 641.09375 L 453.10547 641.09375 z M 124.96289 661.32227 L 133.04297 669.40234 L 344.84375 669.40234 A 64.508621 64.508621 0 0 1 338.20508 661.32227 L 124.96289 661.32227 z M 443.66602 661.32227 A 64.508621 64.508621 0 0 1 436.9082 669.40234 L 648.77539 669.40234 L 656.85547 661.32227 L 443.66602 661.32227 z "
       id="rect4140-3"
       inkscape:export-filename="C:\Users\shholmes\Dropbox\Apps\Rainmeter\Skins\Slideshow - Stripes\pictures\Cassette.png"
       inkscape:export-xdpi="102.8"
       inkscape:export-ydpi="102.8" />
  </g>
</svg>
